<svg width="54" height="56" viewBox="0 0 54 56" fill="none" xmlns="http://www.w3.org/2000/svg">
<g clip-path="url(#clip0_1_2)">
<path d="M37.2243 17.9133L19.3777 7.16535C16.7187 5.55515 13.4153 5.47465 10.6758 7.00431L4.47177 10.426C1.7323 11.9154 0 14.8137 0 17.9938V36.35C0 39.4093 1.61144 42.2272 4.18977 43.7972L22.0365 54.5855C24.6953 56.1957 27.9988 56.2762 30.7383 54.7465L36.9423 51.365C39.7222 49.8353 41.4545 46.937 41.4545 43.7568V25.4007C41.4142 22.3413 39.843 19.5235 37.2243 17.9133ZM35.3712 42.4285C35.3712 44.1997 34.4043 45.8502 32.8332 46.6955L29.1672 48.7082C27.5155 49.6342 25.4608 49.5938 23.8493 48.5875L8.7421 39.4898C7.09037 38.4835 6.04292 36.672 6.04292 34.7398V18.9197C6.04292 17.39 6.88893 15.9811 8.21837 15.2565L12.8513 12.7205C14.1807 11.9959 15.7519 12.0362 17.041 12.801L33.236 22.5828C34.5655 23.388 35.3712 24.8372 35.3712 26.3668V42.4285Z" fill="#49A7EF"/>
<path d="M18.9345 31.5195C18.451 31.2377 18.1288 30.6742 18.1288 30.1105V21.5765C18.1288 19.9262 16.759 18.5575 15.1073 18.5575C13.4555 18.5575 12.0858 19.9262 12.0858 21.5765V32.7673C12.0858 33.814 12.6095 34.7802 13.4958 35.3035L24.8565 42.187C26.3068 43.0727 28.2003 42.5895 29.0463 41.1403C29.8923 39.7315 29.4088 37.8797 27.9988 37.0343L18.9345 31.5195Z" fill="#49A7EF"/>
<path d="M53.5 22.5427C53.5 19.604 52.6943 16.746 51.2037 14.2904C49.8743 12.0764 47.9405 10.265 45.765 8.93656L31.7052 0.483062C30.2952 -0.402543 28.3615 -0.0402508 27.4752 1.36866C26.5485 2.81784 26.9917 4.70981 28.442 5.59541L41.2127 13.2841C42.2198 13.8879 43.1465 14.5722 43.9522 15.4176C46.168 17.7927 47.4572 20.9325 47.4572 24.2333C47.4572 24.2333 47.4572 33.653 47.4572 37.5577C47.4572 39.2082 48.8268 40.5768 50.4785 40.5768C52.1303 40.5768 53.5 39.2082 53.5 37.5577V24.958V22.5427Z" fill="#49A7EF"/>
</g>
<defs>
<clipPath id="clip0_1_2">
<rect width="53.5" height="56" fill="white"/>
</clipPath>
</defs>
</svg>
